{
    "asset" : {
        "generator" : "Khronos glTF Blender I/O v1.4.40",
        "version" : "2.0"
    },
    "scene" : 0,
    "scenes" : [
        {
            "name" : "Scene",
            "nodes" : [
                0
            ]
        }
    ],
    "nodes" : [
        {
            "mesh" : 0,
            "name" : "Vert.018"
        }
    ],
    "materials" : [
        {
            "doubleSided" : true,
            "name" : "Material.003",
            "pbrMetallicRoughness" : {
                "baseColorFactor" : [
                    0.24049687385559082,
                    0.8000000715255737,
                    0.14889921247959137,
                    1
                ],
                "metallicFactor" : 0,
                "roughnessFactor" : 0.5
            }
        }
    ],
    "meshes" : [
        {
            "name" : "Vert.018",
            "primitives" : [
                {
                    "attributes" : {
                        "POSITION" : 0,
                        "NORMAL" : 1,
                        "TEXCOORD_0" : 2
                    },
                    "indices" : 3,
                    "material" : 0
                }
            ]
        }
    ],
    "accessors" : [
        {
            "bufferView" : 0,
            "componentType" : 5126,
            "count" : 10924,
            "max" : [
                4.581735610961914,
                8.70435619354248,
                4.58172607421875
            ],
            "min" : [
                -4.5817365646362305,
                -7.872916221618652,
                -4.581748962402344
            ],
            "type" : "VEC3"
        },
        {
            "bufferView" : 1,
            "componentType" : 5126,
            "count" : 10924,
            "type" : "VEC3"
        },
        {
            "bufferView" : 2,
            "componentType" : 5126,
            "count" : 10924,
            "type" : "VEC2"
        },
        {
            "bufferView" : 3,
            "componentType" : 5123,
            "count" : 56832,
            "type" : "SCALAR"
        }
    ],
    "bufferViews" : [
        {
            "buffer" : 0,
            "byteLength" : 131088,
            "byteOffset" : 0
        },
        {
            "buffer" : 0,
            "byteLength" : 131088,
            "byteOffset" : 131088
        },
        {
            "buffer" : 0,
            "byteLength" : 87392,
            "byteOffset" : 262176
        },
        {
            "buffer" : 0,
            "byteLength" : 113664,
            "byteOffset" : 349568
        }
    ],
    "buffers" : [
        {
            "byteLength" : 463232,
            "uri" : "data:application/octet-stream;base64,"
        }
    ]
}
