{
    "asset" : {
        "generator" : "Khronos glTF Blender I/O v1.4.40",
        "version" : "2.0"
    },
    "scene" : 0,
    "scenes" : [
        {
            "name" : "Scene",
            "nodes" : [
                0
            ]
        }
    ],
    "nodes" : [
        {
            "mesh" : 0,
            "name" : "Vert.018",
            "translation" : [
                -0.04371523857116699,
                0.5129029750823975,
                39.49409866333008
            ]
        }
    ],
    "meshes" : [
        {
            "name" : "Vert.018",
            "primitives" : [
                {
                    "attributes" : {
                        "POSITION" : 0,
                        "NORMAL" : 1,
                        "TEXCOORD_0" : 2
                    },
                    "indices" : 3
                }
            ]
        }
    ],
    "accessors" : [
        {
            "bufferView" : 0,
            "componentType" : 5126,
            "count" : 10924,
            "max" : [
                4.581736087799072,
                16.577272415161133,
                4.581736087799072
            ],
            "min" : [
                -4.581736087799072,
                0,
                -4.581736087799072
            ],
            "type" : "VEC3"
        },
        {
            "bufferView" : 1,
            "componentType" : 5126,
            "count" : 10924,
            "type" : "VEC3"
        },
        {
            "bufferView" : 2,
            "componentType" : 5126,
            "count" : 10924,
            "type" : "VEC2"
        },
        {
            "bufferView" : 3,
            "componentType" : 5123,
            "count" : 56832,
            "type" : "SCALAR"
        }
    ],
    "bufferViews" : [
        {
            "buffer" : 0,
            "byteLength" : 131088,
            "byteOffset" : 0
        },
        {
            "buffer" : 0,
            "byteLength" : 131088,
            "byteOffset" : 131088
        },
        {
            "buffer" : 0,
            "byteLength" : 87392,
            "byteOffset" : 262176
        },
        {
            "buffer" : 0,
            "byteLength" : 113664,
            "byteOffset" : 349568
        }
    ],
    "buffers" : [
        {
            "byteLength" : 463232,
            "uri" : "data:application/octet-stream;base64,"
        }
    ]
}
