{
    "asset" : {
        "generator" : "Khronos glTF Blender I/O v1.4.40",
        "version" : "2.0"
    },
    "scene" : 0,
    "scenes" : [
        {
            "name" : "Scene",
            "nodes" : [
                0,
                2,
                4,
                5,
                6,
                7,
                8,
                11,
                13
            ]
        }
    ],
    "nodes" : [
        {
            "name" : "Empty",
            "rotation" : [
                0.5,
                0.5,
                -0.5,
                0.4999999701976776
            ],
            "scale" : [
                -1,
                1,
                1
            ],
            "translation" : [
                0,
                2.3449745178222656,
                -75.71565246582031
            ]
        },
        {
            "mesh" : 0,
            "name" : "Cube.004",
            "translation" : [
                -0.20420821011066437,
                30.238656997680664,
                0.04717445373535156
            ]
        },
        {
            "children" : [
                1
            ],
            "name" : "Vert.008",
            "translation" : [
                0,
                -0.17255491018295288,
                -29.65021514892578
            ]
        },
        {
            "mesh" : 1,
            "name" : "Cube.001",
            "scale" : [
                0.5113429427146912,
                1.005293369293213,
                0.6746153831481934
            ],
            "translation" : [
                0,
                -0.2440962791442871,
                0
            ]
        },
        {
            "children" : [
                3
            ],
            "name" : "Vert.015",
            "translation" : [
                -3.095574378967285,
                -2.7129170894622803,
                -2.6119425296783447
            ]
        },
        {
            "mesh" : 2,
            "name" : "Vert.018",
            "translation" : [
                -0.04371523857116699,
                0.5129029750823975,
                39.49409866333008
            ]
        },
        {
            "name" : "Vert.020",
            "translation" : [
                0,
                -0.2565266489982605,
                -3.0355656147003174
            ]
        },
        {
            "mesh" : 3,
            "name" : "Vert.021",
            "translation" : [
                0,
                -0.2565266489982605,
                21.582426071166992
            ]
        },
        {
            "mesh" : 4,
            "name" : "Cube.003",
            "scale" : [
                0.656868577003479,
                1.3985666036605835,
                4.846260070800781
            ],
            "translation" : [
                -0.13044601678848267,
                17.767723083496094,
                21.586143493652344
            ]
        },
        {
            "mesh" : 5,
            "name" : "Circle",
            "translation" : [
                0,
                22.389755249023438,
                0
            ]
        },
        {
            "mesh" : 6,
            "name" : "Roundcube",
            "translation" : [
                0,
                28.7663631439209,
                -0.052353858947753906
            ]
        },
        {
            "children" : [
                9,
                10
            ],
            "name" : "Vert.010",
            "translation" : [
                0,
                0.6886774897575378,
                -15.60103702545166
            ]
        },
        {
            "mesh" : 7,
            "name" : "Plane",
            "translation" : [
                0,
                7.412827491760254,
                0
            ]
        },
        {
            "children" : [
                12
            ],
            "mesh" : 8,
            "name" : "Vert.023",
            "translation" : [
                0,
                -0.303987979888916,
                9.563887596130371
            ]
        }
    ],
    "meshes" : [
        {
            "name" : "Cube.007",
            "primitives" : [
                {
                    "attributes" : {
                        "POSITION" : 0,
                        "NORMAL" : 1,
                        "TEXCOORD_0" : 2
                    },
                    "indices" : 3
                }
            ]
        },
        {
            "name" : "Cube.003",
            "primitives" : [
                {
                    "attributes" : {
                        "POSITION" : 4,
                        "NORMAL" : 5,
                        "TEXCOORD_0" : 6
                    },
                    "indices" : 7
                }
            ]
        },
        {
            "name" : "Vert.018",
            "primitives" : [
                {
                    "attributes" : {
                        "POSITION" : 8,
                        "NORMAL" : 9,
                        "TEXCOORD_0" : 10
                    },
                    "indices" : 11
                }
            ]
        },
        {
            "name" : "Vert.021",
            "primitives" : [
                {
                    "attributes" : {
                        "POSITION" : 12,
                        "NORMAL" : 13,
                        "TEXCOORD_0" : 14
                    },
                    "indices" : 15
                }
            ]
        },
        {
            "name" : "Cube.006",
            "primitives" : [
                {
                    "attributes" : {
                        "POSITION" : 16,
                        "NORMAL" : 17,
                        "TEXCOORD_0" : 18
                    },
                    "indices" : 19
                }
            ]
        },
        {
            "name" : "Circle",
            "primitives" : [
                {
                    "attributes" : {
                        "POSITION" : 20,
                        "NORMAL" : 21,
                        "TEXCOORD_0" : 22
                    },
                    "indices" : 23
                }
            ]
        },
        {
            "name" : "Roundcube",
            "primitives" : [
                {
                    "attributes" : {
                        "POSITION" : 24,
                        "NORMAL" : 25
                    },
                    "indices" : 26
                }
            ]
        },
        {
            "name" : "Plane",
            "primitives" : [
                {
                    "attributes" : {
                        "POSITION" : 27,
                        "NORMAL" : 28,
                        "TEXCOORD_0" : 29
                    },
                    "indices" : 30
                }
            ]
        },
        {
            "name" : "Vert.023",
            "primitives" : [
                {
                    "attributes" : {
                        "POSITION" : 31,
                        "NORMAL" : 32
                    },
                    "indices" : 33
                }
            ]
        }
    ],
    "accessors" : [
        {
            "bufferView" : 0,
            "componentType" : 5126,
            "count" : 194,
            "max" : [
                1.2566736936569214,
                2.4378662109375,
                2.487671375274658
            ],
            "min" : [
                -1.2566736936569214,
                -2.1111526489257812,
                -2.4876716136932373
            ],
            "type" : "VEC3"
        },
        {
            "bufferView" : 1,
            "componentType" : 5126,
            "count" : 194,
            "type" : "VEC3"
        },
        {
            "bufferView" : 2,
            "componentType" : 5126,
            "count" : 194,
            "type" : "VEC2"
        },
        {
            "bufferView" : 3,
            "componentType" : 5123,
            "count" : 420,
            "type" : "SCALAR"
        },
        {
            "bufferView" : 4,
            "componentType" : 5126,
            "count" : 24,
            "max" : [
                5.806796073913574,
                23.347360610961914,
                4.840886116027832
            ],
            "min" : [
                -5.806796073913574,
                19.03084945678711,
                -1.5573461055755615
            ],
            "type" : "VEC3"
        },
        {
            "bufferView" : 5,
            "componentType" : 5126,
            "count" : 24,
            "type" : "VEC3"
        },
        {
            "bufferView" : 6,
            "componentType" : 5126,
            "count" : 24,
            "type" : "VEC2"
        },
        {
            "bufferView" : 7,
            "componentType" : 5123,
            "count" : 36,
            "type" : "SCALAR"
        },
        {
            "bufferView" : 8,
            "componentType" : 5126,
            "count" : 10924,
            "max" : [
                4.581736087799072,
                16.577272415161133,
                4.581736087799072
            ],
            "min" : [
                -4.581736087799072,
                0,
                -4.581736087799072
            ],
            "type" : "VEC3"
        },
        {
            "bufferView" : 9,
            "componentType" : 5126,
            "count" : 10924,
            "type" : "VEC3"
        },
        {
            "bufferView" : 10,
            "componentType" : 5126,
            "count" : 10924,
            "type" : "VEC2"
        },
        {
            "bufferView" : 11,
            "componentType" : 5123,
            "count" : 56832,
            "type" : "SCALAR"
        },
        {
            "bufferView" : 12,
            "componentType" : 5126,
            "count" : 5957,
            "max" : [
                5.288195610046387,
                19.189058303833008,
                5.2881951332092285
            ],
            "min" : [
                -5.2881951332092285,
                0,
                -5.2881951332092285
            ],
            "type" : "VEC3"
        },
        {
            "bufferView" : 13,
            "componentType" : 5126,
            "count" : 5957,
            "type" : "VEC3"
        },
        {
            "bufferView" : 14,
            "componentType" : 5126,
            "count" : 5957,
            "type" : "VEC2"
        },
        {
            "bufferView" : 15,
            "componentType" : 5123,
            "count" : 35262,
            "type" : "SCALAR"
        },
        {
            "bufferView" : 16,
            "componentType" : 5126,
            "count" : 28,
            "max" : [
                7.3778228759765625,
                1,
                1
            ],
            "min" : [
                -7.3778228759765625,
                -1,
                -1
            ],
            "type" : "VEC3"
        },
        {
            "bufferView" : 17,
            "componentType" : 5126,
            "count" : 28,
            "type" : "VEC3"
        },
        {
            "bufferView" : 18,
            "componentType" : 5126,
            "count" : 28,
            "type" : "VEC2"
        },
        {
            "bufferView" : 19,
            "componentType" : 5123,
            "count" : 72,
            "type" : "SCALAR"
        },
        {
            "bufferView" : 20,
            "componentType" : 5126,
            "count" : 980,
            "max" : [
                2.899338483810425,
                6.088221549987793,
                2.899340867996216
            ],
            "min" : [
                -2.8993380069732666,
                -2.384185791015625e-06,
                -2.899336099624634
            ],
            "type" : "VEC3"
        },
        {
            "bufferView" : 21,
            "componentType" : 5126,
            "count" : 980,
            "type" : "VEC3"
        },
        {
            "bufferView" : 22,
            "componentType" : 5126,
            "count" : 980,
            "type" : "VEC2"
        },
        {
            "bufferView" : 23,
            "componentType" : 5123,
            "count" : 5868,
            "type" : "SCALAR"
        },
        {
            "bufferView" : 24,
            "componentType" : 5126,
            "count" : 98,
            "max" : [
                0.4378221035003662,
                0.4378242492675781,
                0.43782055377960205
            ],
            "min" : [
                -0.4378221035003662,
                -0.4378199577331543,
                -0.4378237724304199
            ],
            "type" : "VEC3"
        },
        {
            "bufferView" : 25,
            "componentType" : 5126,
            "count" : 98,
            "type" : "VEC3"
        },
        {
            "bufferView" : 26,
            "componentType" : 5123,
            "count" : 576,
            "type" : "SCALAR"
        },
        {
            "bufferView" : 27,
            "componentType" : 5126,
            "count" : 100,
            "max" : [
                5.444636821746826,
                11.263866424560547,
                4.668279647827148
            ],
            "min" : [
                -0.1895642876625061,
                -2.004992961883545,
                -6.289709091186523
            ],
            "type" : "VEC3"
        },
        {
            "bufferView" : 28,
            "componentType" : 5126,
            "count" : 100,
            "type" : "VEC3"
        },
        {
            "bufferView" : 29,
            "componentType" : 5126,
            "count" : 100,
            "type" : "VEC2"
        },
        {
            "bufferView" : 30,
            "componentType" : 5123,
            "count" : 561,
            "type" : "SCALAR"
        },
        {
            "bufferView" : 31,
            "componentType" : 5126,
            "count" : 3648,
            "max" : [
                5.951061725616455,
                7.3208513259887695,
                5.951061725616455
            ],
            "min" : [
                -5.951061248779297,
                0,
                -5.951061248779297
            ],
            "type" : "VEC3"
        },
        {
            "bufferView" : 32,
            "componentType" : 5126,
            "count" : 3648,
            "type" : "VEC3"
        },
        {
            "bufferView" : 33,
            "componentType" : 5123,
            "count" : 21504,
            "type" : "SCALAR"
        }
    ],
    "bufferViews" : [
        {
            "buffer" : 0,
            "byteLength" : 2328,
            "byteOffset" : 0
        },
        {
            "buffer" : 0,
            "byteLength" : 2328,
            "byteOffset" : 2328
        },
        {
            "buffer" : 0,
            "byteLength" : 1552,
            "byteOffset" : 4656
        },
        {
            "buffer" : 0,
            "byteLength" : 840,
            "byteOffset" : 6208
        },
        {
            "buffer" : 0,
            "byteLength" : 288,
            "byteOffset" : 7048
        },
        {
            "buffer" : 0,
            "byteLength" : 288,
            "byteOffset" : 7336
        },
        {
            "buffer" : 0,
            "byteLength" : 192,
            "byteOffset" : 7624
        },
        {
            "buffer" : 0,
            "byteLength" : 72,
            "byteOffset" : 7816
        },
        {
            "buffer" : 0,
            "byteLength" : 131088,
            "byteOffset" : 7888
        },
        {
            "buffer" : 0,
            "byteLength" : 131088,
            "byteOffset" : 138976
        },
        {
            "buffer" : 0,
            "byteLength" : 87392,
            "byteOffset" : 270064
        },
        {
            "buffer" : 0,
            "byteLength" : 113664,
            "byteOffset" : 357456
        },
        {
            "buffer" : 0,
            "byteLength" : 71484,
            "byteOffset" : 471120
        },
        {
            "buffer" : 0,
            "byteLength" : 71484,
            "byteOffset" : 542604
        },
        {
            "buffer" : 0,
            "byteLength" : 47656,
            "byteOffset" : 614088
        },
        {
            "buffer" : 0,
            "byteLength" : 70524,
            "byteOffset" : 661744
        },
        {
            "buffer" : 0,
            "byteLength" : 336,
            "byteOffset" : 732268
        },
        {
            "buffer" : 0,
            "byteLength" : 336,
            "byteOffset" : 732604
        },
        {
            "buffer" : 0,
            "byteLength" : 224,
            "byteOffset" : 732940
        },
        {
            "buffer" : 0,
            "byteLength" : 144,
            "byteOffset" : 733164
        },
        {
            "buffer" : 0,
            "byteLength" : 11760,
            "byteOffset" : 733308
        },
        {
            "buffer" : 0,
            "byteLength" : 11760,
            "byteOffset" : 745068
        },
        {
            "buffer" : 0,
            "byteLength" : 7840,
            "byteOffset" : 756828
        },
        {
            "buffer" : 0,
            "byteLength" : 11736,
            "byteOffset" : 764668
        },
        {
            "buffer" : 0,
            "byteLength" : 1176,
            "byteOffset" : 776404
        },
        {
            "buffer" : 0,
            "byteLength" : 1176,
            "byteOffset" : 777580
        },
        {
            "buffer" : 0,
            "byteLength" : 1152,
            "byteOffset" : 778756
        },
        {
            "buffer" : 0,
            "byteLength" : 1200,
            "byteOffset" : 779908
        },
        {
            "buffer" : 0,
            "byteLength" : 1200,
            "byteOffset" : 781108
        },
        {
            "buffer" : 0,
            "byteLength" : 800,
            "byteOffset" : 782308
        },
        {
            "buffer" : 0,
            "byteLength" : 1122,
            "byteOffset" : 783108
        },
        {
            "buffer" : 0,
            "byteLength" : 43776,
            "byteOffset" : 784232
        },
        {
            "buffer" : 0,
            "byteLength" : 43776,
            "byteOffset" : 828008
        },
        {
            "buffer" : 0,
            "byteLength" : 43008,
            "byteOffset" : 871784
        }
    ],
    "buffers" : [
        {
            "byteLength" : 914792,
            "uri" : "data:application/octet-stream;base64,"
        }
    ]
}
