{
    "asset" : {
        "generator" : "Khronos glTF Blender I/O v1.4.40",
        "version" : "2.0"
    },
    "scene" : 0,
    "scenes" : [
        {
            "name" : "Scene",
            "nodes" : [
                0,
                1
            ]
        }
    ],
    "nodes" : [
        {
            "mesh" : 0,
            "name" : "desirefx_me_005"
        },
        {
            "mesh" : 1,
            "name" : "desirefx_me_006"
        }
    ],
    "materials" : [
        {
            "doubleSided" : true,
            "name" : "wire_210118173",
            "pbrMetallicRoughness" : {
                "baseColorFactor" : [
                    0.8234999775886536,
                    0.4627000093460083,
                    0.6783999800682068,
                    1
                ],
                "metallicFactor" : 0,
                "roughnessFactor" : 0.8114382028579712
            }
        },
        {
            "doubleSided" : true,
            "name" : "wire_001017052",
            "pbrMetallicRoughness" : {
                "baseColorFactor" : [
                    0.0038999998942017555,
                    0.06669999659061432,
                    0.20389999449253082,
                    1
                ],
                "metallicFactor" : 0,
                "roughnessFactor" : 0.8114382028579712
            }
        }
    ],
    "meshes" : [
        {
            "name" : "desirefx_me_005",
            "primitives" : [
                {
                    "attributes" : {
                        "POSITION" : 0,
                        "NORMAL" : 1,
                        "TEXCOORD_0" : 2
                    },
                    "indices" : 3,
                    "material" : 0
                }
            ]
        },
        {
            "name" : "desirefx_me_006",
            "primitives" : [
                {
                    "attributes" : {
                        "POSITION" : 4,
                        "NORMAL" : 5,
                        "TEXCOORD_0" : 6
                    },
                    "indices" : 7,
                    "material" : 1
                }
            ]
        }
    ],
    "accessors" : [
        {
            "bufferView" : 0,
            "componentType" : 5126,
            "count" : 21148,
            "max" : [
                -17.22173500061035,
                34.13669204711914,
                0.7512524724006653
            ],
            "min" : [
                -18.7227840423584,
                32.624908447265625,
                -0.7497959733009338
            ],
            "type" : "VEC3"
        },
        {
            "bufferView" : 1,
            "componentType" : 5126,
            "count" : 21148,
            "type" : "VEC3"
        },
        {
            "bufferView" : 2,
            "componentType" : 5126,
            "count" : 21148,
            "type" : "VEC2"
        },
        {
            "bufferView" : 3,
            "componentType" : 5123,
            "count" : 96480,
            "type" : "SCALAR"
        },
        {
            "bufferView" : 4,
            "componentType" : 5126,
            "count" : 15654,
            "max" : [
                35.22578048706055,
                39.22655487060547,
                3.7464144229888916
            ],
            "min" : [
                -19.080322265625,
                -4.181409622106003e-06,
                -3.746417284011841
            ],
            "type" : "VEC3"
        },
        {
            "bufferView" : 5,
            "componentType" : 5126,
            "count" : 15654,
            "type" : "VEC3"
        },
        {
            "bufferView" : 6,
            "componentType" : 5126,
            "count" : 15654,
            "type" : "VEC2"
        },
        {
            "bufferView" : 7,
            "componentType" : 5123,
            "count" : 52812,
            "type" : "SCALAR"
        }
    ],
    "bufferViews" : [
        {
            "buffer" : 0,
            "byteLength" : 253776,
            "byteOffset" : 0
        },
        {
            "buffer" : 0,
            "byteLength" : 253776,
            "byteOffset" : 253776
        },
        {
            "buffer" : 0,
            "byteLength" : 169184,
            "byteOffset" : 507552
        },
        {
            "buffer" : 0,
            "byteLength" : 192960,
            "byteOffset" : 676736
        },
        {
            "buffer" : 0,
            "byteLength" : 187848,
            "byteOffset" : 869696
        },
        {
            "buffer" : 0,
            "byteLength" : 187848,
            "byteOffset" : 1057544
        },
        {
            "buffer" : 0,
            "byteLength" : 125232,
            "byteOffset" : 1245392
        },
        {
            "buffer" : 0,
            "byteLength" : 105624,
            "byteOffset" : 1370624
        }
    ],
    "buffers" : [
        {
            "byteLength" : 1476248,
            "uri" : "data:application/octet-stream;base64,"
        }
    ]
}
