{
    "asset" : {
        "generator" : "Khronos glTF Blender I/O v1.4.40",
        "version" : "2.0"
    },
    "scene" : 0,
    "scenes" : [
        {
            "name" : "Scene",
            "nodes" : [
                0
            ]
        }
    ],
    "nodes" : [
        {
            "mesh" : 0,
            "name" : "Vert.015"
        }
    ],
    "materials" : [
        {
            "doubleSided" : true,
            "name" : "Material.002",
            "pbrMetallicRoughness" : {
                "baseColorFactor" : [
                    0.00473161693662405,
                    0.011916505172848701,
                    0.8000000715255737,
                    1
                ],
                "metallicFactor" : 0,
                "roughnessFactor" : 0.5
            }
        }
    ],
    "meshes" : [
        {
            "name" : "Vert.015",
            "primitives" : [
                {
                    "attributes" : {
                        "POSITION" : 0,
                        "NORMAL" : 1,
                        "TEXCOORD_0" : 2
                    },
                    "indices" : 3,
                    "material" : 0
                }
            ]
        }
    ],
    "accessors" : [
        {
            "bufferView" : 0,
            "componentType" : 5126,
            "count" : 13471,
            "max" : [
                5.1500725746154785,
                24.61048126220703,
                5.15007209777832
            ],
            "min" : [
                -5.1500725746154785,
                0,
                -5.15007209777832
            ],
            "type" : "VEC3"
        },
        {
            "bufferView" : 1,
            "componentType" : 5126,
            "count" : 13471,
            "type" : "VEC3"
        },
        {
            "bufferView" : 2,
            "componentType" : 5126,
            "count" : 13471,
            "type" : "VEC2"
        },
        {
            "bufferView" : 3,
            "componentType" : 5123,
            "count" : 80244,
            "type" : "SCALAR"
        }
    ],
    "bufferViews" : [
        {
            "buffer" : 0,
            "byteLength" : 161652,
            "byteOffset" : 0
        },
        {
            "buffer" : 0,
            "byteLength" : 161652,
            "byteOffset" : 161652
        },
        {
            "buffer" : 0,
            "byteLength" : 107768,
            "byteOffset" : 323304
        },
        {
            "buffer" : 0,
            "byteLength" : 160488,
            "byteOffset" : 431072
        }
    ],
    "buffers" : [
        {
            "byteLength" : 591560,
            "uri" : "data:application/octet-stream;base64,"
        }
    ]
}
