{
    "asset" : {
        "generator" : "Khronos glTF Blender I/O v1.4.40",
        "version" : "2.0"
    },
    "scene" : 0,
    "scenes" : [
        {
            "name" : "Scene",
            "nodes" : [
                0
            ]
        }
    ],
    "nodes" : [
        {
            "mesh" : 0,
            "name" : "Cube"
        }
    ],
    "materials" : [
        {
            "doubleSided" : true,
            "name" : "Material.002",
            "pbrMetallicRoughness" : {
                "baseColorFactor" : [
                    0.800000011920929,
                    0.800000011920929,
                    0.800000011920929,
                    1
                ],
                "metallicFactor" : 0,
                "roughnessFactor" : 0.5
            }
        },
        {
            "doubleSided" : true,
            "name" : "Material.003",
            "pbrMetallicRoughness" : {
                "baseColorFactor" : [
                    0.800000011920929,
                    0.800000011920929,
                    0.800000011920929,
                    1
                ],
                "metallicFactor" : 0,
                "roughnessFactor" : 0.5
            }
        }
    ],
    "meshes" : [
        {
            "name" : "Cube",
            "primitives" : [
                {
                    "attributes" : {
                        "POSITION" : 0,
                        "NORMAL" : 1,
                        "TEXCOORD_0" : 2
                    },
                    "indices" : 3,
                    "material" : 0
                },
                {
                    "attributes" : {
                        "POSITION" : 4,
                        "NORMAL" : 5,
                        "TEXCOORD_0" : 6
                    },
                    "indices" : 7,
                    "material" : 1
                }
            ]
        }
    ],
    "accessors" : [
        {
            "bufferView" : 0,
            "componentType" : 5126,
            "count" : 119,
            "max" : [
                29.360368728637695,
                10.450483322143555,
                37.00876998901367
            ],
            "min" : [
                -29.360368728637695,
                0,
                -37.00876998901367
            ],
            "type" : "VEC3"
        },
        {
            "bufferView" : 1,
            "componentType" : 5126,
            "count" : 119,
            "type" : "VEC3"
        },
        {
            "bufferView" : 2,
            "componentType" : 5126,
            "count" : 119,
            "type" : "VEC2"
        },
        {
            "bufferView" : 3,
            "componentType" : 5123,
            "count" : 174,
            "type" : "SCALAR"
        },
        {
            "bufferView" : 4,
            "componentType" : 5126,
            "count" : 4,
            "max" : [
                26.150320053100586,
                7.46127462387085,
                32.962501525878906
            ],
            "min" : [
                -26.150320053100586,
                7.46127462387085,
                -32.962501525878906
            ],
            "type" : "VEC3"
        },
        {
            "bufferView" : 5,
            "componentType" : 5126,
            "count" : 4,
            "type" : "VEC3"
        },
        {
            "bufferView" : 6,
            "componentType" : 5126,
            "count" : 4,
            "type" : "VEC2"
        },
        {
            "bufferView" : 7,
            "componentType" : 5123,
            "count" : 6,
            "type" : "SCALAR"
        }
    ],
    "bufferViews" : [
        {
            "buffer" : 0,
            "byteLength" : 1428,
            "byteOffset" : 0
        },
        {
            "buffer" : 0,
            "byteLength" : 1428,
            "byteOffset" : 1428
        },
        {
            "buffer" : 0,
            "byteLength" : 952,
            "byteOffset" : 2856
        },
        {
            "buffer" : 0,
            "byteLength" : 348,
            "byteOffset" : 3808
        },
        {
            "buffer" : 0,
            "byteLength" : 48,
            "byteOffset" : 4156
        },
        {
            "buffer" : 0,
            "byteLength" : 48,
            "byteOffset" : 4204
        },
        {
            "buffer" : 0,
            "byteLength" : 32,
            "byteOffset" : 4252
        },
        {
            "buffer" : 0,
            "byteLength" : 12,
            "byteOffset" : 4284
        }
    ],
    "buffers" : [
        {
            "byteLength" : 4296,
            "uri" : "data:application/octet-stream;base64,"
        }
    ]
}
