{
    "asset" : {
        "generator" : "Khronos glTF Blender I/O v1.4.40",
        "version" : "2.0"
    },
    "scene" : 0,
    "scenes" : [
        {
            "name" : "Scene",
            "nodes" : [
                2
            ]
        }
    ],
    "nodes" : [
        {
            "mesh" : 0,
            "name" : "Circle"
        },
        {
            "mesh" : 1,
            "name" : "Roundcube"
        },
        {
            "children" : [
                0,
                1
            ],
            "mesh" : 2,
            "name" : "Vert.010"
        }
    ],
    "materials" : [
        {
            "doubleSided" : true,
            "name" : "Material.007",
            "pbrMetallicRoughness" : {
                "baseColorFactor" : [
                    0.533276379108429,
                    0.533276379108429,
                    0.5028864741325378,
                    1
                ],
                "metallicFactor" : 0,
                "roughnessFactor" : 0.5
            }
        },
        {
            "doubleSided" : true,
            "name" : "Material.006",
            "pbrMetallicRoughness" : {
                "baseColorFactor" : [
                    0.5088812708854675,
                    0.533276379108429,
                    0.5520113706588745,
                    1
                ],
                "metallicFactor" : 0,
                "roughnessFactor" : 0.5
            }
        }
    ],
    "meshes" : [
        {
            "name" : "Circle",
            "primitives" : [
                {
                    "attributes" : {
                        "POSITION" : 0,
                        "NORMAL" : 1,
                        "TEXCOORD_0" : 2
                    },
                    "indices" : 3,
                    "material" : 0
                }
            ]
        },
        {
            "name" : "Roundcube",
            "primitives" : [
                {
                    "attributes" : {
                        "POSITION" : 4,
                        "NORMAL" : 5
                    },
                    "indices" : 6
                }
            ]
        },
        {
            "name" : "Vert.022",
            "primitives" : [
                {
                    "attributes" : {
                        "POSITION" : 7,
                        "NORMAL" : 8
                    },
                    "indices" : 9,
                    "material" : 1
                }
            ]
        }
    ],
    "accessors" : [
        {
            "bufferView" : 0,
            "componentType" : 5126,
            "count" : 15522,
            "max" : [
                2.836209774017334,
                28.47649574279785,
                2.836211919784546
            ],
            "min" : [
                -2.836209535598755,
                22.389753341674805,
                -2.836207628250122
            ],
            "type" : "VEC3"
        },
        {
            "bufferView" : 1,
            "componentType" : 5126,
            "count" : 15522,
            "type" : "VEC3"
        },
        {
            "bufferView" : 2,
            "componentType" : 5126,
            "count" : 15522,
            "type" : "VEC2"
        },
        {
            "bufferView" : 3,
            "componentType" : 5123,
            "count" : 93120,
            "type" : "SCALAR"
        },
        {
            "bufferView" : 4,
            "componentType" : 5126,
            "count" : 386,
            "max" : [
                0.41931822896003723,
                29.185688018798828,
                0.36696285009384155
            ],
            "min" : [
                -0.4193182587623596,
                28.347049713134766,
                -0.47167372703552246
            ],
            "type" : "VEC3"
        },
        {
            "bufferView" : 5,
            "componentType" : 5126,
            "count" : 386,
            "type" : "VEC3"
        },
        {
            "bufferView" : 6,
            "componentType" : 5123,
            "count" : 2304,
            "type" : "SCALAR"
        },
        {
            "bufferView" : 7,
            "componentType" : 5126,
            "count" : 6720,
            "max" : [
                6.25586462020874,
                22.374814987182617,
                6.25586462020874
            ],
            "min" : [
                -6.25586462020874,
                0,
                -6.25586462020874
            ],
            "type" : "VEC3"
        },
        {
            "bufferView" : 8,
            "componentType" : 5126,
            "count" : 6720,
            "type" : "VEC3"
        },
        {
            "bufferView" : 9,
            "componentType" : 5123,
            "count" : 39936,
            "type" : "SCALAR"
        }
    ],
    "bufferViews" : [
        {
            "buffer" : 0,
            "byteLength" : 186264,
            "byteOffset" : 0
        },
        {
            "buffer" : 0,
            "byteLength" : 186264,
            "byteOffset" : 186264
        },
        {
            "buffer" : 0,
            "byteLength" : 124176,
            "byteOffset" : 372528
        },
        {
            "buffer" : 0,
            "byteLength" : 186240,
            "byteOffset" : 496704
        },
        {
            "buffer" : 0,
            "byteLength" : 4632,
            "byteOffset" : 682944
        },
        {
            "buffer" : 0,
            "byteLength" : 4632,
            "byteOffset" : 687576
        },
        {
            "buffer" : 0,
            "byteLength" : 4608,
            "byteOffset" : 692208
        },
        {
            "buffer" : 0,
            "byteLength" : 80640,
            "byteOffset" : 696816
        },
        {
            "buffer" : 0,
            "byteLength" : 80640,
            "byteOffset" : 777456
        },
        {
            "buffer" : 0,
            "byteLength" : 79872,
            "byteOffset" : 858096
        }
    ],
    "buffers" : [
        {
            "byteLength" : 937968,
            "uri" : "data:application/octet-stream;base64,"
        }
    ]
}
