{
    "asset" : {
        "generator" : "Khronos glTF Blender I/O v1.4.40",
        "version" : "2.0"
    },
    "scene" : 0,
    "scenes" : [
        {
            "name" : "Scene",
            "nodes" : [
                0
            ]
        }
    ],
    "nodes" : [
        {
            "mesh" : 0,
            "name" : "Cube"
        }
    ],
    "materials" : [
        {
            "doubleSided" : true,
            "name" : "board top",
            "pbrMetallicRoughness" : {
                "baseColorFactor" : [
                    0.800000011920929,
                    0.800000011920929,
                    0.800000011920929,
                    1
                ],
                "metallicFactor" : 0,
                "roughnessFactor" : 0.5
            }
        },
        {
            "doubleSided" : true,
            "name" : "boardsides",
            "pbrMetallicRoughness" : {
                "baseColorFactor" : [
                    0.800000011920929,
                    0.800000011920929,
                    0.800000011920929,
                    1
                ],
                "metallicFactor" : 0,
                "roughnessFactor" : 0.5
            }
        }
    ],
    "meshes" : [
        {
            "name" : "Cube",
            "primitives" : [
                {
                    "attributes" : {
                        "POSITION" : 0,
                        "NORMAL" : 1,
                        "TEXCOORD_0" : 2
                    },
                    "indices" : 3,
                    "material" : 0
                },
                {
                    "attributes" : {
                        "POSITION" : 4,
                        "NORMAL" : 5,
                        "TEXCOORD_0" : 6
                    },
                    "indices" : 7,
                    "material" : 1
                }
            ]
        }
    ],
    "accessors" : [
        {
            "bufferView" : 0,
            "componentType" : 5126,
            "count" : 91,
            "max" : [
                37.00876998901367,
                10.450483322143555,
                29.360366821289062
            ],
            "min" : [
                -37.00876998901367,
                0,
                -29.360366821289062
            ],
            "type" : "VEC3"
        },
        {
            "bufferView" : 1,
            "componentType" : 5126,
            "count" : 91,
            "type" : "VEC3"
        },
        {
            "bufferView" : 2,
            "componentType" : 5126,
            "count" : 91,
            "type" : "VEC2"
        },
        {
            "bufferView" : 3,
            "componentType" : 5123,
            "count" : 132,
            "type" : "SCALAR"
        },
        {
            "bufferView" : 4,
            "componentType" : 5126,
            "count" : 32,
            "max" : [
                37.00876998901367,
                10.232491493225098,
                29.360366821289062
            ],
            "min" : [
                -37.00876998901367,
                0.21799182891845703,
                -29.360366821289062
            ],
            "type" : "VEC3"
        },
        {
            "bufferView" : 5,
            "componentType" : 5126,
            "count" : 32,
            "type" : "VEC3"
        },
        {
            "bufferView" : 6,
            "componentType" : 5126,
            "count" : 32,
            "type" : "VEC2"
        },
        {
            "bufferView" : 7,
            "componentType" : 5123,
            "count" : 48,
            "type" : "SCALAR"
        }
    ],
    "bufferViews" : [
        {
            "buffer" : 0,
            "byteLength" : 1092,
            "byteOffset" : 0
        },
        {
            "buffer" : 0,
            "byteLength" : 1092,
            "byteOffset" : 1092
        },
        {
            "buffer" : 0,
            "byteLength" : 728,
            "byteOffset" : 2184
        },
        {
            "buffer" : 0,
            "byteLength" : 264,
            "byteOffset" : 2912
        },
        {
            "buffer" : 0,
            "byteLength" : 384,
            "byteOffset" : 3176
        },
        {
            "buffer" : 0,
            "byteLength" : 384,
            "byteOffset" : 3560
        },
        {
            "buffer" : 0,
            "byteLength" : 256,
            "byteOffset" : 3944
        },
        {
            "buffer" : 0,
            "byteLength" : 96,
            "byteOffset" : 4200
        }
    ],
    "buffers" : [
        {
            "byteLength" : 4296,
            "uri" : "data:application/octet-stream;base64,"
        }
    ]
}
