{
    "asset" : {
        "generator" : "Khronos glTF Blender I/O v1.4.40",
        "version" : "2.0"
    },
    "scene" : 0,
    "scenes" : [
        {
            "name" : "Scene",
            "nodes" : [
                1
            ]
        }
    ],
    "nodes" : [
        {
            "mesh" : 0,
            "name" : "Plane"
        },
        {
            "children" : [
                0
            ],
            "mesh" : 1,
            "name" : "Vert.023"
        }
    ],
    "materials" : [
        {
            "doubleSided" : true,
            "name" : "Material.005",
            "pbrMetallicRoughness" : {
                "baseColorFactor" : [
                    0.31398868560791016,
                    0.40724021196365356,
                    0.19806936383247375,
                    1
                ],
                "metallicFactor" : 0,
                "roughnessFactor" : 0.5
            }
        },
        {
            "doubleSided" : true,
            "name" : "Material.004",
            "pbrMetallicRoughness" : {
                "baseColorFactor" : [
                    0.33716365694999695,
                    0.4969330132007599,
                    0.16202934086322784,
                    1
                ],
                "metallicFactor" : 0,
                "roughnessFactor" : 0.5
            }
        }
    ],
    "meshes" : [
        {
            "name" : "Plane",
            "primitives" : [
                {
                    "attributes" : {
                        "POSITION" : 0,
                        "NORMAL" : 1,
                        "TEXCOORD_0" : 2
                    },
                    "indices" : 3,
                    "material" : 0
                }
            ]
        },
        {
            "name" : "Vert.023",
            "primitives" : [
                {
                    "attributes" : {
                        "POSITION" : 4,
                        "NORMAL" : 5
                    },
                    "indices" : 6,
                    "material" : 1
                }
            ]
        }
    ],
    "accessors" : [
        {
            "bufferView" : 0,
            "componentType" : 5126,
            "count" : 11770,
            "max" : [
                4.0789475440979,
                14.993478775024414,
                4.376748085021973
            ],
            "min" : [
                -4.078947067260742,
                3.0053796768188477,
                -6.116164207458496
            ],
            "type" : "VEC3"
        },
        {
            "bufferView" : 1,
            "componentType" : 5126,
            "count" : 11770,
            "type" : "VEC3"
        },
        {
            "bufferView" : 2,
            "componentType" : 5126,
            "count" : 11770,
            "type" : "VEC2"
        },
        {
            "bufferView" : 3,
            "componentType" : 5123,
            "count" : 70080,
            "type" : "SCALAR"
        },
        {
            "bufferView" : 4,
            "componentType" : 5126,
            "count" : 3648,
            "max" : [
                5.951061725616455,
                3.815286874771118,
                5.951061725616455
            ],
            "min" : [
                -5.951061248779297,
                -3.5055644512176514,
                -5.951061248779297
            ],
            "type" : "VEC3"
        },
        {
            "bufferView" : 5,
            "componentType" : 5126,
            "count" : 3648,
            "type" : "VEC3"
        },
        {
            "bufferView" : 6,
            "componentType" : 5123,
            "count" : 21504,
            "type" : "SCALAR"
        }
    ],
    "bufferViews" : [
        {
            "buffer" : 0,
            "byteLength" : 141240,
            "byteOffset" : 0
        },
        {
            "buffer" : 0,
            "byteLength" : 141240,
            "byteOffset" : 141240
        },
        {
            "buffer" : 0,
            "byteLength" : 94160,
            "byteOffset" : 282480
        },
        {
            "buffer" : 0,
            "byteLength" : 140160,
            "byteOffset" : 376640
        },
        {
            "buffer" : 0,
            "byteLength" : 43776,
            "byteOffset" : 516800
        },
        {
            "buffer" : 0,
            "byteLength" : 43776,
            "byteOffset" : 560576
        },
        {
            "buffer" : 0,
            "byteLength" : 43008,
            "byteOffset" : 604352
        }
    ],
    "buffers" : [
        {
            "byteLength" : 647360,
            "uri" : "data:application/octet-stream;base64,"
        }
    ]
}
